<svg width="96" height="96" xmlns="http://www.w3.org/2000/svg" xmlns:xlink="http://www.w3.org/1999/xlink" xml:space="preserve" overflow="hidden"><g transform="translate(-258 -134)"><path d="M334 208C334 209.1 333.1 210 332 210 330.9 210 330 209.1 330 208L330 160 334 160 334 208ZM280 210C278.9 210 278 209.1 278 208L278 154 324 154 324 208C324 208.7 324.1 209.4 324.3 210L280 210ZM330 154 330 148 272 148 272 208C272 212.4 275.6 216 280 216L332 216C336.4 216 340 212.4 340 208L340 154 330 154Z"/><path d="M282 160 320 160 320 164 282 164Z"/><path d="M303 168 320 168 320 172 303 172Z"/><path d="M303 176 320 176 320 180 303 180Z"/><path d="M282 168 299 168 299 180 282 180Z"/><path d="M282 184 320 184 320 188 282 188Z"/><path d="M303 192 320 192 320 204 303 204Z"/><path d="M282 192 299 192 299 196 282 196Z"/><path d="M282 200 299 200 299 204 282 204Z"/></g></svg>