<svg width="96" height="96" xmlns="http://www.w3.org/2000/svg" xmlns:xlink="http://www.w3.org/1999/xlink" xml:space="preserve" overflow="hidden"><g transform="translate(-727 -134)"><path d="M791 164C791 172.837 783.837 180 775 180 766.163 180 759 172.837 759 164 759 155.163 766.163 148 775 148 783.837 148 791 155.163 791 164Z"/><path d="M807 216 807 200C807 197.6 805.8 195.2 803.8 193.6 799.4 190 793.8 187.6 788.2 186 784.2 184.8 779.8 184 775 184 770.6 184 766.2 184.8 761.8 186 756.2 187.6 750.6 190.4 746.2 193.6 744.2 195.2 743 197.6 743 200L743 216 807 216Z"/></g></svg>