<svg width="126" height="228" xmlns="http://www.w3.org/2000/svg" xmlns:xlink="http://www.w3.org/1999/xlink" xml:space="preserve" overflow="hidden"><defs><clipPath id="clip0"><rect x="2074" y="512" width="126" height="228"/></clipPath></defs><g clip-path="url(#clip0)" transform="translate(-2074 -512)"><path d="M2182.06 700.46C2186.25 698.145 2188.87 693.737 2188.91 688.932L2188.91 687.797C2188.88 681.63 2184.62 676.3 2178.64 674.927L2178.64 660.852C2187.38 651.123 2189.48 637.075 2183.95 625.2 2179.77 615.634 2160.13 602.179 2153.11 598.29 2149.94 596.515 2147.51 593.658 2146.25 590.237 2149.44 592.535 2153.46 593.35 2157.29 592.475 2163.42 590.237 2168.73 595.916 2170.21 597.74 2174.01 601.972 2180.83 599.873 2186.96 597.258 2196.61 593.042 2201.85 582.481 2199.4 572.205 2199.23 566.94 2173.02 549.39 2173.02 549.39L2172.09 542.886C2172.09 541.751 2168.05 530.016 2150.37 526.988 2150.37 526.988 2153.55 515.494 2148.96 513.223 2139.37 508.784 2104.42 515.631 2085.02 547.016 2070.66 570.244 2070.32 598.359 2084.06 626.164 2087.49 633.046 2096.26 646.811 2096.26 657.135L2096.26 674.927C2090.27 676.3 2086.02 681.63 2085.98 687.797L2085.98 688.932C2086.02 693.737 2088.64 698.145 2092.83 700.46L2092.83 712.47 2079.13 712.47 2079.13 740 2195.63 740 2195.63 712.47 2181.92 712.47Z" fill-rule="evenodd"/></g></svg>