<svg width="96" height="96" xmlns="http://www.w3.org/2000/svg" xmlns:xlink="http://www.w3.org/1999/xlink" xml:space="preserve" overflow="hidden"><g transform="translate(-423 -134)"><path d="M452 160C453.7 160 455 158.7 455 157L455 151C455 149.3 453.7 148 452 148 450.3 148 449 149.3 449 151L449 157C449 158.7 450.3 160 452 160Z"/><path d="M443 202 459 202 459 210 443 210 443 202ZM443 190 459 190 459 198 443 198 443 190ZM443 178 459 178 459 186 443 186 443 178ZM479 178 479 186 463 186 463 178 479 178ZM499 178 499 186 483 186 483 178 499 178ZM499 198 483 198 483 190 499 190 499 198ZM499 210 483 210 483 202 499 202 499 210ZM463 198 463 190 479 190 479 198 463 198ZM463 210 463 202 479 202 479 210 463 210ZM437 216 505 216 505 172 437 172 437 216Z"/><path d="M490 160C491.7 160 493 158.7 493 157L493 151C493 149.3 491.7 148 490 148 488.3 148 487 149.3 487 151L487 157C487 158.7 488.3 160 490 160Z"/><path d="M497 154 497 157C497 160.9 493.9 164 490 164 486.1 164 483 160.9 483 157L483 154 459 154 459 157C459 160.9 455.9 164 452 164 448.1 164 445 160.9 445 157L445 154 437 154 437 168 505 168 505 154 497 154Z"/></g></svg>