<svg width="96" height="96" xmlns="http://www.w3.org/2000/svg" xmlns:xlink="http://www.w3.org/1999/xlink" xml:space="preserve" overflow="hidden"><g transform="translate(-1166 -134)"><path d="M1189 182.5C1189 187.194 1185.19 191 1180.5 191 1175.81 191 1172 187.194 1172 182.5 1172 177.806 1175.81 174 1180.5 174 1185.19 174 1189 177.806 1189 182.5Z"/><path d="M1222 182.5C1222 187.194 1218.19 191 1213.5 191 1208.81 191 1205 187.194 1205 182.5 1205 177.806 1208.81 174 1213.5 174 1218.19 174 1222 177.806 1222 182.5Z"/><path d="M1255 182.5C1255 187.194 1251.19 191 1246.5 191 1241.81 191 1238 187.194 1238 182.5 1238 177.806 1241.81 174 1246.5 174 1251.19 174 1255 177.806 1255 182.5Z"/></g></svg>